<?xml version="1.0" encoding="utf-8"?>
<svg viewBox="0 0 500 500" xmlns="http://www.w3.org/2000/svg">
  <g id="svgg" transform="matrix(1, 0, 0, 1, 50.56749725341797, 50.21649932861328)">
    <path id="path3" d="M 139.066 43.068 C 147.167 72.116 117.691 84.123 109.6 110.786 C 105.91 122.947 116.703 139.56 117.964 149.684 C 119.205 159.65 113.076 186.046 115.096 189.403 C 116.69 192.052 122.472 191.927 124.909 189.483 C 127.134 187.251 132.68 178.306 134.887 176.243 C 142.661 168.975 155.618 170.196 164.789 170.506 C 175.45 170.867 183.048 178.765 190.4 185.168 C 192.057 186.611 195.553 191.229 196.8 190.6 C 206.31 185.802 209.119 181.388 217.855 175.8 C 225.399 170.974 237.566 170.128 245.863 170.423 C 253.585 170.697 260.697 176.378 265.57 181.859 C 268.003 184.596 266.084 192.007 270.741 193.031 C 274.085 193.766 281.497 191.865 283.434 188.418 C 284.855 185.89 284.18 179.898 283.417 177.1 C 280.586 166.715 278.183 159.495 278.6 148.346 C 278.681 146.193 280.59 144.519 281.431 142.536 C 286.189 131.312 294.104 114.612 288.529 102.582 C 284.147 93.126 274.871 86.824 268.469 78.6 C 264.904 74.021 259.559 69.541 259.401 63.74 C 259.238 57.74 264.425 42.445 263.085 42.552 C 261.075 42.712 248.732 45.655 245.6 49.243 C 239.947 55.719 238.525 64.933 235.625 73.026 C 233.562 78.782 259.417 88.443 233.066 93.695 C 218.037 96.69 202.724 88.312 187.4 88.393 C 179.344 88.435 171.96 93.927 163.905 94.059 C 149.697 94.292 159.693 83.594 159.98 79.4 C 160.606 70.243 160.919 60.845 158.93 51.885 C 158.227 48.716 142.37 43.151 139.066 43.068" stroke="none" fill-rule="evenodd" style=""/>
    <path id="path0" d="M 138.751 136.964 C 138.459 137.06 143.345 140.044 143.574 140.229 C 148.552 144.247 147.186 149.793 152.362 154.003 C 157.894 158.502 157.923 157.627 165.24 158.313 C 166.993 158.478 171.345 157.067 174.623 157.42 C 177.299 157.709 178.962 159.83 180.365 159.517 C 182.006 159.151 178.57 153.92 177.743 152.456 C 176.699 150.607 174.545 147.971 173.1 146.393 C 165.497 138.093 157.248 134.387 145.754 134.359 M 241.589 135.584 C 230.963 139.03 228.688 141.257 221.696 151.402 C 220.84 152.644 217.311 157.9 217.621 159.363 C 217.765 160.042 223.794 157.467 224.162 157.445 C 227.254 157.263 228.651 157.342 231.748 157.342 C 234.23 157.342 238.527 157.144 240.921 156.492 C 247.828 154.612 250.954 147.76 255.124 142.522 C 257.161 139.964 262.473 139.667 260.17 137.518 C 257.926 135.424 253.735 133.944 250.666 133.939 M 150 178.144 C 149.173 178.584 132.71 185.639 136.681 188.632 C 138.271 189.831 147.817 184.083 151.4 184.226 C 159.588 184.552 166.88 188.379 174.278 191.271 C 175.699 191.827 177.151 193.365 178.581 192.833 C 196.018 186.342 170.052 179.847 165.8 179.224 C 160.577 178.459 155.267 178.504 150 178.144 M 239.8 176.81 C 234.698 178.559 221.917 181.983 218.381 183.796 C 212.199 186.965 213.732 189.383 215.142 190.33 C 222.827 195.492 238.156 183.824 246.6 184.226 C 247.919 184.289 261.7 191.207 263.1 186.638 C 263.565 185.119 260.379 184.997 259 184.209 C 251.698 180.04 248.366 178.116 239.8 176.81 M 125.373 200.2 C 126.259 233.562 132.93 269.917 123.607 302.596 C 121.868 308.693 119.075 316.701 114.02 320.865 C 109.19 324.843 104.266 328.713 99.211 332.4 C 98.423 332.975 93.627 333.269 94.916 335.168 C 99.4 341.776 111.228 346.515 117.855 350.6 C 135.609 361.542 153.821 371.827 172.006 382 C 177.507 385.077 183.308 387.545 188.8 390.6 C 191.762 392.248 195.916 396.4 199.387 396.4 C 203.518 396.4 211.363 390.841 214.997 388.8 C 228.386 381.281 242.111 374.454 255.2 366.6 C 268.294 358.744 283.567 352.571 295.2 342.6 C 296.364 341.602 305.402 336.539 305.2 335.2 C 304.822 332.698 295.88 331.375 294 329.731 C 286.47 323.146 279.794 316.011 276.38 306.349 C 267.508 281.241 272.371 245.174 273.518 216.759 C 273.932 206.515 270.68 204.212 270.642 194.915 C 270.64 194.38 270.084 200.993 268.798 204.896 C 267.088 210.088 264.929 213.841 262.626 218.779 C 258.666 227.271 251.532 236.729 250.56 246.2 C 250.103 250.656 249.946 263.798 247.686 267.987 C 247.484 268.362 241.827 264.447 240.959 263.836 C 236.871 260.958 224.83 250.353 220.346 249.8 C 215.895 249.251 211.389 249.143 206.904 249.2 C 203.311 249.246 201.986 253.079 197.821 252.035 C 195.52 251.458 193.775 249.135 191.411 248.946 C 187.696 248.649 183.942 248.397 180.232 248.748 C 177.852 248.973 174.55 252.193 172.5 253.706 C 167.392 257.476 161.952 260.696 156.787 264.4 C 155.523 265.307 153.598 267.669 151.946 267.873 C 145.812 268.631 148.695 249.039 148.387 245.992 C 147.427 236.509 139.548 224.521 135 216.255 C 132.795 212.248 130.846 208.08 128.8 203.988 C 128.027 202.443 127.545 200.839 127 199.2 C 126.784 198.55 126.936 196.893 126.353 197.251 C 125.471 197.793 125.7 199.217 125.373 200.2 M 205.8 264.799 C 216.857 267.553 219.527 265.096 224.4 271.303 C 226.53 274.016 234.119 286.469 226.795 287.696 C 221.944 288.509 222.102 284.284 219.6 280.853 C 214.292 273.576 192.066 276.31 182.133 277.8 C 174.977 278.873 183.548 292.306 170.013 286.212 C 166.946 284.831 173.216 272.032 175.2 270.798 C 187.029 263.44 192.695 264.162 205.8 264.799" stroke="none" fill-rule="evenodd" style=""/>
    <path id="path2" d="M 114.903 189.864 C 101.763 215.753 91.651 243.007 81.614 270.251 C 79.034 277.255 76.366 284.31 73.602 291.251 C 73.027 292.694 70.443 294.617 70.647 295.927 C 73.005 311.067 83.53 324.284 94.836 334 C 95.81 334.837 98.826 333.269 99.964 332.673 C 102.641 331.272 105.643 329.399 108.021 327.535 C 135.569 305.942 129.716 260.161 127.276 231.168 C 127.023 228.166 127.03 224.594 127.09 221.582 C 127.288 211.734 129.733 200.957 126.327 191.715 C 124.993 188.095 118.759 189.987 114.903 189.864 M 276.388 190.578 C 263.569 195.943 274.924 197.061 272.351 224.589 C 271.376 235.016 270.429 246.104 270.081 256.558 C 269.526 273.242 271 291.101 276.346 307.049 C 279.862 317.538 287.016 324.289 295.467 331.369 C 296.227 332.006 301.998 336.204 304.769 334.778 C 314.172 329.939 322.403 316.351 326 306.42 C 326.754 304.337 329.839 297.415 328.458 295.558 C 323.607 289.035 321.099 279.185 317.813 270.976 C 312.486 257.669 307.643 244.17 302.281 230.887 C 298.202 220.782 293.964 210.818 289.78 200.8 C 289.628 200.437 285.553 190.532 284.6 190.031 C 282.172 188.754 279.12 190.331 276.388 190.578" stroke="none" fill-rule="evenodd" style=""/>
  </g>
</svg>